# xmcd CD database file
#
# Track frame offsets:
#	150
#	19087
#	41867
#
# Disc length: 828 seconds
#
# Revision: 1
# Processed by: cddbd v1.5.2PL0 Copyright (c) Steve Scherf et al.
# Submitted via: CDex 1.51
#
DISCID=1f033a03
DTITLE=Monaco - Shine (Someone Who Needs Me)
DYEAR=1997
DGENRE=Pop
TTITLE0=Shine (Someone Who Needs Me)
TTITLE1=Comin' Around Again
TTITLE2=Tender
EXTD=YEAR: 1997
EXTT0=
EXTT1=
EXTT2=
PLAYORDER=
